<svg xmlns="http://www.w3.org/2000/svg" viewBox="0 0 512 512">
  <defs>
    <linearGradient id="bg" x1="0" y1="0" x2="1" y2="1">
      <stop offset="0" stop-color="#2360c9"/>
      <stop offset="1" stop-color="#0D2B5E"/>
    </linearGradient>
  </defs>
  <rect width="512" height="512" rx="112" fill="url(#bg)"/>
  <!-- white label/tag card -->
  <rect x="116" y="92" width="280" height="328" rx="30" fill="#ffffff"/>
  <!-- heading + text lines -->
  <rect x="150" y="134" width="156" height="24" rx="12" fill="#1B4FA8"/>
  <rect x="150" y="178" width="212" height="16" rx="8" fill="#a8bfe4"/>
  <rect x="150" y="208" width="172" height="16" rx="8" fill="#a8bfe4"/>
  <!-- divider -->
  <rect x="150" y="248" width="212" height="4" rx="2" fill="#dfe4ea"/>
  <!-- barcode -->
  <g fill="#0D2B5E">
    <rect x="150" y="286" width="11" height="92"/>
    <rect x="168" y="286" width="6"  height="92"/>
    <rect x="181" y="286" width="15" height="92"/>
    <rect x="203" y="286" width="6"  height="92"/>
    <rect x="216" y="286" width="11" height="92"/>
    <rect x="234" y="286" width="17" height="92"/>
    <rect x="258" y="286" width="6"  height="92"/>
    <rect x="271" y="286" width="13" height="92"/>
    <rect x="291" y="286" width="6"  height="92"/>
    <rect x="304" y="286" width="15" height="92"/>
    <rect x="326" y="286" width="8"  height="92"/>
    <rect x="341" y="286" width="13" height="92"/>
    <rect x="361" y="286" width="6"  height="92"/>
  </g>
</svg>
